<svg width="27" height="21" viewBox="0 0 27 21" fill="none" xmlns="http://www.w3.org/2000/svg">
<path d="M25.5855 3.45938C25.4751 3.02736 25.2636 2.62779 24.9683 2.29364C24.6731 1.95948 24.3026 1.70031 23.8875 1.5375C19.8703 -0.0140557 13.4766 4.45544e-06 13.125 4.45544e-06C12.7734 4.45544e-06 6.37969 -0.0140557 2.3625 1.5375C1.94738 1.70031 1.57692 1.95948 1.28168 2.29364C0.98643 2.62779 0.77488 3.02736 0.66446 3.45938C0.36094 4.62891 0 6.76637 0 10.3125C0 13.8586 0.36094 15.9961 0.66446 17.1657C0.77471 17.5979 0.98619 17.9977 1.28145 18.3321C1.5767 18.6664 1.94725 18.9258 2.3625 19.0887C6.21094 20.5735 12.2344 20.625 13.0476 20.625H13.2023C14.0156 20.625 20.0426 20.5735 23.8875 19.0887C24.3027 18.9258 24.6733 18.6664 24.9685 18.3321C25.2638 17.9977 25.4753 17.5979 25.5855 17.1657C25.8891 15.9938 26.25 13.8586 26.25 10.3125C26.25 6.76637 25.8891 4.62891 25.5855 3.45938ZM17.1351 10.7028L11.5101 14.4528C11.4395 14.4999 11.3575 14.5269 11.2727 14.531C11.1879 14.5351 11.1036 14.5162 11.0287 14.4761C10.9539 14.436 10.8914 14.3764 10.8478 14.3036C10.8042 14.2307 10.7812 14.1474 10.7812 14.0625V6.56247C10.7812 6.47767 10.8042 6.39427 10.8478 6.32147C10.8914 6.24867 10.9539 6.18897 11.0287 6.14897C11.1036 6.10887 11.1879 6.08987 11.2727 6.09397C11.3575 6.09807 11.4395 6.12517 11.5101 6.17227L17.1351 9.92227C17.1994 9.96507 17.2522 10.0231 17.2886 10.0912C17.3251 10.1593 17.3442 10.2353 17.3442 10.3125C17.3442 10.3898 17.3251 10.4658 17.2886 10.5339C17.2522 10.602 17.1994 10.66 17.1351 10.7028Z" fill="black"/>
</svg>
