<svg width="31" height="31" viewBox="0 0 31 31" fill="none" xmlns="http://www.w3.org/2000/svg">
<path d="M27.9605 8.73282C27.8501 8.3008 27.6386 7.90123 27.3433 7.56707C27.0481 7.23291 26.6776 6.97374 26.2625 6.81094C22.2453 5.25938 15.8516 5.27344 15.5 5.27344C15.1484 5.27344 8.75469 5.25938 4.7375 6.81094C4.32238 6.97374 3.95192 7.23291 3.65667 7.56707C3.36143 7.90123 3.14987 8.3008 3.03945 8.73282C2.73594 9.90235 2.375 12.0398 2.375 15.5859C2.375 19.132 2.73594 21.2695 3.03945 22.4391C3.14971 22.8713 3.36119 23.2711 3.65644 23.6055C3.95169 23.9398 4.32224 24.1992 4.7375 24.3621C8.58594 25.8469 14.6094 25.8984 15.4227 25.8984H15.5773C16.3906 25.8984 22.4176 25.8469 26.2625 24.3621C26.6778 24.1992 27.0483 23.9398 27.3436 23.6055C27.6388 23.2711 27.8503 22.8713 27.9605 22.4391C28.2641 21.2672 28.625 19.132 28.625 15.5859C28.625 12.0398 28.2641 9.90235 27.9605 8.73282ZM19.5102 15.9762L13.8852 19.7262C13.8145 19.7733 13.7325 19.8003 13.6477 19.8044C13.5629 19.8086 13.4786 19.7896 13.4038 19.7495C13.3289 19.7094 13.2664 19.6498 13.2228 19.577C13.1792 19.5041 13.1562 19.4208 13.1562 19.3359V11.8359C13.1562 11.7511 13.1792 11.6678 13.2228 11.5949C13.2664 11.5221 13.3289 11.4624 13.4038 11.4224C13.4786 11.3823 13.5629 11.3633 13.6477 11.3674C13.7325 11.3715 13.8145 11.3986 13.8852 11.4457L19.5102 15.1957C19.5745 15.2385 19.6272 15.2965 19.6637 15.3646C19.7001 15.4327 19.7192 15.5087 19.7192 15.5859C19.7192 15.6632 19.7001 15.7392 19.6637 15.8073C19.6272 15.8754 19.5745 15.9334 19.5102 15.9762Z" fill="#EAECEF"/>
</svg>
