<svg width="31" height="25" viewBox="0 0 31 25" fill="none" xmlns="http://www.w3.org/2000/svg">
<path d="M25.8962 2.43758C23.9512 1.48773 21.8986 0.810307 19.7898 0.422264C19.7706 0.418541 19.7509 0.421314 19.7333 0.430191C19.7157 0.439069 19.7011 0.453602 19.6917 0.471741C19.428 0.970663 19.1358 1.62185 18.9314 2.13354C16.6254 1.76613 14.3314 1.76613 12.0729 2.13354C11.8683 1.61036 11.5656 0.970663 11.3007 0.471741C11.2909 0.453895 11.2763 0.439614 11.2588 0.430781C11.2412 0.421949 11.2216 0.418979 11.2024 0.422264C9.09346 0.809429 7.04077 1.48689 5.09607 2.43758C5.07951 2.44525 5.06551 2.45804 5.05587 2.47429C1.16666 8.65671 0.101358 14.6872 0.623959 20.643C0.627143 20.6724 0.641171 20.6992 0.662959 20.7177C3.22887 22.7228 5.71452 23.9401 8.15398 24.7469C8.17296 24.7528 8.1932 24.7525 8.21201 24.746C8.23081 24.7394 8.2473 24.7269 8.25928 24.7102C8.83633 23.8716 9.35068 22.9875 9.79183 22.0579C9.79791 22.0451 9.80138 22.0312 9.80201 22.0169C9.80264 22.0026 9.80043 21.9884 9.79551 21.9751C9.79059 21.9618 9.78308 21.9498 9.77348 21.9398C9.76387 21.9298 9.75239 21.9221 9.73978 21.9172C8.92378 21.5878 8.14693 21.1864 7.39963 20.7304C7.38602 20.7219 7.37459 20.7099 7.36635 20.6956C7.35811 20.6813 7.35331 20.665 7.35237 20.6482C7.35144 20.6314 7.3544 20.6147 7.36099 20.5994C7.36758 20.5841 7.37761 20.5708 7.39018 20.5606C7.54783 20.4352 7.70278 20.306 7.85488 20.1731C7.86821 20.1614 7.88434 20.1539 7.90145 20.1514C7.91857 20.1489 7.93599 20.1516 7.95178 20.159C12.8616 22.5442 18.1769 22.5442 23.0286 20.159C23.0445 20.1511 23.0621 20.1481 23.0795 20.1504C23.0969 20.1526 23.1133 20.1601 23.1269 20.1718C23.2791 20.3055 23.4345 20.4351 23.5928 20.5606C23.6054 20.5707 23.6155 20.5839 23.6222 20.5991C23.6289 20.6144 23.632 20.6311 23.6311 20.6479C23.6303 20.6646 23.6256 20.6809 23.6175 20.6953C23.6094 20.7097 23.5981 20.7218 23.5845 20.7304C22.8368 21.195 22.0536 21.5916 21.2432 21.916C21.2306 21.9211 21.2192 21.929 21.2097 21.9392C21.2002 21.9493 21.1928 21.9615 21.188 21.9749C21.1832 21.9882 21.1812 22.0025 21.1819 22.0168C21.1826 22.0311 21.1862 22.0451 21.1923 22.0579C21.6411 22.9802 22.1528 23.8662 22.7235 24.7089C22.7352 24.7261 22.7516 24.7389 22.7705 24.7457C22.7893 24.7525 22.8097 24.7529 22.8288 24.7469C25.2801 23.9401 27.7658 22.7228 30.3318 20.7177C30.3428 20.709 30.3519 20.698 30.3587 20.6854C30.3654 20.6727 30.3695 20.6587 30.3708 20.6442C30.9963 13.7588 29.3231 7.77761 25.9352 2.47557C25.9269 2.45829 25.9131 2.44479 25.8962 2.43758ZM10.525 17.0166C9.04678 17.0166 7.82878 15.5727 7.82878 13.7993C7.82878 12.0259 9.02323 10.582 10.525 10.582C12.0385 10.582 13.2447 12.0387 13.221 13.7993C13.221 15.5727 12.0267 17.0166 10.525 17.0166ZM20.4935 17.0166C19.0152 17.0166 17.7974 15.5727 17.7974 13.7993C17.7974 12.0259 18.9917 10.582 20.4935 10.582C22.007 10.582 23.2131 12.0387 23.1896 13.7993C23.1896 15.5727 22.007 17.0166 20.4935 17.0166Z" fill="#EAECEF"/>
</svg>
