<svg width="31" height="27" viewBox="0 0 31 27" fill="none" xmlns="http://www.w3.org/2000/svg">
<path d="M2.56204 11.7472C10.6166 8.01417 15.9863 5.55301 18.6712 4.36377C26.3459 0.968274 27.9387 0.378551 28.979 0.358573C29.2078 0.354669 29.7171 0.414834 30.0495 0.70074C30.3257 0.941864 30.4034 1.26796 30.4423 1.49691C30.4768 1.72564 30.5243 2.24692 30.4855 2.65385C30.0711 7.30182 28.2711 18.5809 27.356 23.7869C26.9718 25.9897 26.2078 26.7282 25.4697 26.8003C23.864 26.9574 22.6467 25.6723 21.0928 24.5889C18.6626 22.8927 17.2899 21.8373 14.9288 20.1825C12.2008 18.27 13.9705 17.2187 15.5245 15.501C15.9302 15.0513 23.0007 8.21028 23.1345 7.58979C23.1517 7.51217 23.169 7.22282 23.005 7.07034C22.8453 6.91739 22.6079 6.96975 22.4352 7.01109C22.1891 7.06988 18.3086 9.80171 10.7807 15.2061C9.67994 16.0117 8.68283 16.4044 7.785 16.3837C6.80084 16.3612 4.90159 15.7903 3.49009 15.3026C1.76349 14.7041 0.38653 14.3877 0.507392 13.3713C0.567823 12.8422 1.25415 12.3007 2.56204 11.7472Z" fill="#EAECEF"/>
</svg>
