<svg width="31" height="27" viewBox="0 0 31 27" fill="none" xmlns="http://www.w3.org/2000/svg">
<path d="M27.4287 7.07421C27.447 7.35564 27.447 7.63707 27.447 7.92117C27.447 16.5747 21.2557 26.5549 9.9345 26.5549V26.5496C6.59003 26.5547 3.31484 25.5355 0.5 23.6137C0.986556 23.6758 1.47489 23.7073 1.965 23.7083C4.73701 23.7107 7.42928 22.7214 9.60917 20.8994C8.32482 20.8735 7.08019 20.4212 6.04923 19.6059C5.01827 18.7905 4.25251 17.6527 3.859 16.3516C4.78112 16.5409 5.73177 16.5023 6.63767 16.2388C3.76633 15.6215 1.7005 12.9372 1.7005 9.81956V9.73657C2.55647 10.2439 3.51446 10.525 4.49383 10.5562C1.7895 8.633 0.955833 4.80482 2.58883 1.81172C4.13395 3.83508 6.06187 5.4899 8.24731 6.66867C10.4328 7.84744 12.8268 8.52378 15.274 8.65375C15.03 7.53624 15.066 6.37015 15.3785 5.27211C15.691 4.17407 16.2689 3.18257 17.0545 2.39676C19.5335 -0.08277 23.4323 0.0443804 25.7627 2.68068C27.141 2.39114 28.4628 1.85348 29.6712 1.09085C29.2117 2.6072 28.2502 3.89433 26.9655 4.71278C28.1856 4.55969 29.3771 4.21218 30.5 3.68192C29.6741 4.99817 28.634 6.14683 27.4287 7.07421Z" fill="#EAECEF"/>
</svg>
