<svg width="31" height="31" viewBox="0 0 31 31" fill="none" xmlns="http://www.w3.org/2000/svg">
<circle cx="15.5" cy="15.0854" r="15" fill="white"/>
<path d="M15.5 24.5854C14.2017 24.5854 12.9746 24.3359 11.8187 23.8368C10.6629 23.3378 9.6537 22.6569 8.7911 21.7943C7.9285 20.9317 7.24767 19.9225 6.7486 18.7667C6.24953 17.6109 6 16.3838 6 15.0854C6 13.7713 6.24953 12.5404 6.7486 11.3928C7.24767 10.2452 7.9285 9.23978 8.7911 8.37655C9.6537 7.51332 10.6629 6.83248 11.8187 6.33405C12.9746 5.83562 14.2017 5.58608 15.5 5.58545C16.8142 5.58545 18.0454 5.83498 19.1936 6.33405C20.3418 6.83312 21.3469 7.51395 22.2089 8.37655C23.0709 9.23915 23.7517 10.2446 24.2514 11.3928C24.7511 12.541 25.0006 13.7719 25 15.0854C25 16.3838 24.7505 17.6109 24.2514 18.7667C23.7523 19.9225 23.0715 20.9321 22.2089 21.7953C21.3463 22.6585 20.3409 23.3394 19.1926 23.8378C18.0444 24.3362 16.8135 24.5854 15.5 24.5854ZM15.5 22.6379C15.9117 22.0679 16.2679 21.4742 16.5687 20.8567C16.8696 20.2392 17.115 19.5821 17.305 18.8854H13.695C13.885 19.5821 14.1304 20.2392 14.4312 20.8567C14.7321 21.4742 15.0883 22.0679 15.5 22.6379ZM13.03 22.2579C12.745 21.7354 12.4958 21.193 12.2824 20.6306C12.0689 20.0682 11.8906 19.4865 11.7475 18.8854H8.945C9.40417 19.6771 9.97828 20.3659 10.6673 20.9517C11.3564 21.5375 12.144 21.9729 13.03 22.2579ZM17.97 22.2579C18.8567 21.9729 19.6445 21.5375 20.3336 20.9517C21.0227 20.3659 21.5965 19.6771 22.055 18.8854H19.2525C19.11 19.4871 18.932 20.0691 18.7186 20.6315C18.5052 21.1939 18.2556 21.7361 17.97 22.2579ZM8.1375 16.9854H11.3675C11.32 16.6688 11.2845 16.3562 11.2611 16.0478C11.2377 15.7394 11.2256 15.4186 11.225 15.0854C11.2244 14.7523 11.2364 14.4318 11.2611 14.124C11.2858 13.8162 11.3213 13.5034 11.3675 13.1854H8.1375C8.05833 13.5021 7.99912 13.815 7.95985 14.124C7.92058 14.4331 7.90063 14.7536 7.9 15.0854C7.89937 15.4173 7.91932 15.7381 7.95985 16.0478C8.00038 16.3575 8.0596 16.67 8.1375 16.9854ZM13.2675 16.9854H17.7325C17.78 16.6688 17.8158 16.3562 17.8399 16.0478C17.8639 15.7394 17.8756 15.4186 17.875 15.0854C17.8744 14.7523 17.8623 14.4318 17.8389 14.124C17.8155 13.8162 17.78 13.5034 17.7325 13.1854H13.2675C13.22 13.5021 13.1845 13.815 13.1611 14.124C13.1377 14.4331 13.1256 14.7536 13.125 15.0854C13.1244 15.4173 13.1364 15.7381 13.1611 16.0478C13.1858 16.3575 13.2213 16.67 13.2675 16.9854ZM19.6325 16.9854H22.8625C22.9417 16.6688 23.0012 16.3562 23.0411 16.0478C23.081 15.7394 23.1006 15.4186 23.1 15.0854C23.0994 14.7523 23.0797 14.4318 23.0411 14.124C23.0025 13.8162 22.9429 13.5034 22.8625 13.1854H19.6325C19.68 13.5021 19.7158 13.815 19.7398 14.124C19.7639 14.4331 19.7756 14.7536 19.775 15.0854C19.7744 15.4173 19.7623 15.7381 19.7389 16.0478C19.7155 16.3575 19.68 16.67 19.6325 16.9854ZM19.2525 11.2854H22.055C21.5958 10.4938 21.022 9.80503 20.3336 9.2192C19.6452 8.63337 18.8573 8.19795 17.97 7.91295C18.255 8.43545 18.5045 8.9779 18.7186 9.5403C18.9327 10.1027 19.1106 10.6844 19.2525 11.2854ZM13.695 11.2854H17.305C17.115 10.5888 16.8696 9.9317 16.5687 9.3142C16.2679 8.6967 15.9117 8.10295 15.5 7.53295C15.0883 8.10295 14.7321 8.6967 14.4312 9.3142C14.1304 9.9317 13.885 10.5888 13.695 11.2854ZM8.945 11.2854H11.7475C11.89 10.6838 12.0683 10.1017 12.2824 9.53935C12.4964 8.97695 12.7456 8.43482 13.03 7.91295C12.1433 8.19795 11.3555 8.63337 10.6664 9.2192C9.97733 9.80503 9.40353 10.4938 8.945 11.2854Z" fill="#121212"/>
</svg>
