<svg width="31" height="31" viewBox="0 0 31 31" fill="none" xmlns="http://www.w3.org/2000/svg">
<circle cx="15.5" cy="15.2354" r="15" fill="white"/>
<path d="M15.5942 23.7855C14.3985 23.7855 13.2765 23.5597 12.2284 23.1081C11.1802 22.6566 10.2644 22.0387 9.48097 21.2547C8.69754 20.4706 8.07972 19.5545 7.62752 18.5063C7.17532 17.4582 6.94922 16.3362 6.94922 15.1405C6.94922 13.2911 7.48122 11.6239 8.54522 10.1387C9.60922 8.65356 11.014 7.61806 12.7594 7.03223C12.6936 8.51423 12.9206 9.93954 13.4406 11.3082C13.9599 12.6768 14.7452 13.8865 15.7966 14.9372C16.8479 15.9885 18.0576 16.7742 19.4256 17.2941C20.7936 17.8141 22.2192 18.0411 23.7025 17.9753C23.1198 19.7195 22.0849 21.1239 20.5979 22.1885C19.1108 23.2532 17.4429 23.7855 15.5942 23.7855Z" fill="#121212"/>
</svg>
