<svg width="31" height="31" viewBox="0 0 31 31" fill="none" xmlns="http://www.w3.org/2000/svg">
<path fill-rule="evenodd" clip-rule="evenodd" d="M15.5 30.1606C7.21531 30.1606 0.5 23.4453 0.5 15.1606C0.5 6.87596 7.21531 0.160645 15.5 0.160645C23.7847 0.160645 30.5 6.87596 30.5 15.1606C30.5 23.4453 23.7847 30.1606 15.5 30.1606ZM21.5938 18.1175C21.5938 15.7522 20.1162 14.4163 16.6597 13.5838V9.42127C17.7284 9.64065 18.7512 10.101 19.7516 10.8238L21.0256 8.76502C19.7705 7.84622 18.2966 7.27218 16.7506 7.10002V5.78564H14.7725V7.05596C11.93 7.27533 9.99781 8.89627 9.99781 11.2616C9.99781 13.7366 11.5437 14.9413 14.8634 15.7738V20.0675C13.385 19.8481 12.1578 19.191 10.8612 18.1831L9.40625 20.1763C10.9638 21.375 12.8194 22.1252 14.7725 22.3456V24.5356H16.7506V22.3672C19.6381 22.1263 21.5938 20.5269 21.5938 18.1175ZM14.8625 13.1235C13.1122 12.62 12.6809 12.0285 12.6809 11.1078C12.6809 10.145 13.4309 9.37814 14.8634 9.26846L14.8625 13.1235ZM18.9106 18.2703C18.9106 19.3222 18.0922 20.045 16.6597 20.1547V16.19C18.4334 16.6944 18.9106 17.285 18.9106 18.2713V18.2703Z" fill="white"/>
</svg>
