<svg width="39" height="39" viewBox="0 0 39 39" fill="none" xmlns="http://www.w3.org/2000/svg">
<g filter="url(#filter0_d_318_3269)">
<path d="M34.4952 23.1104C32.4477 31.3243 24.1257 36.3175 15.9235 34.2699C7.70934 32.2224 2.71619 23.9007 4.76381 15.6986C6.8113 7.48473 15.1212 2.49158 23.3354 4.5392C31.5376 6.57472 36.5428 14.8964 34.4952 23.1104Z" fill="url(#paint0_linear_318_3269)"/>
</g>
<path d="M26.9255 17.4951C27.2248 15.4598 25.6804 14.3584 23.5493 13.6281L24.2437 10.8625L22.5676 10.4435L21.8972 13.1372C21.4542 13.0295 20.9992 12.9217 20.5443 12.8259L21.2147 10.1202L19.5386 9.70117L18.8562 12.4548C18.4851 12.371 18.1259 12.2872 17.7787 12.2034V12.1914L15.4561 11.6167L15.0131 13.4126C15.0131 13.4126 16.2582 13.6999 16.2343 13.7119C16.9167 13.8795 17.0364 14.3344 17.0125 14.6936L16.2223 17.8423C16.2702 17.8543 16.3301 17.8662 16.4019 17.9022C16.342 17.8902 16.2822 17.8782 16.2223 17.8543L15.1209 22.2601C15.0371 22.4636 14.8216 22.7749 14.3546 22.6551C14.3666 22.6791 13.1335 22.3558 13.1335 22.3558L12.2954 24.2834L14.4863 24.8341C14.8934 24.9418 15.2885 25.0376 15.6836 25.1454L14.9892 27.9349L16.6653 28.3539L17.3597 25.5883C17.8146 25.7081 18.2696 25.8278 18.7006 25.9355L18.0181 28.6892L19.6943 29.1082L20.3886 26.3186C23.262 26.8574 25.417 26.6419 26.3149 24.0439C27.0452 21.9608 26.279 20.7516 24.7705 19.9614C25.8839 19.71 26.71 18.9797 26.9255 17.4951ZM23.0824 22.8826C22.5676 24.9658 19.0478 23.8404 17.9104 23.5531L18.8323 19.8536C19.9696 20.141 23.6331 20.7037 23.0824 22.8826ZM23.6092 17.4592C23.1303 19.3628 20.2091 18.393 19.2633 18.1536L20.1013 14.8013C21.0471 15.0408 24.1 15.4838 23.6092 17.4592Z" fill="white"/>
<defs>
<filter id="filter0_d_318_3269" x="0.304688" y="0.0800781" width="38.6489" height="38.6484" filterUnits="userSpaceOnUse" color-interpolation-filters="sRGB">
<feFlood flood-opacity="0" result="BackgroundImageFix"/>
<feColorMatrix in="SourceAlpha" type="matrix" values="0 0 0 0 0 0 0 0 0 0 0 0 0 0 0 0 0 0 127 0" result="hardAlpha"/>
<feOffset/>
<feGaussianBlur stdDeviation="2"/>
<feComposite in2="hardAlpha" operator="out"/>
<feColorMatrix type="matrix" values="0 0 0 0 0 0 0 0 0 0 0 0 0 0 0 0 0 0 0.35 0"/>
<feBlend mode="normal" in2="BackgroundImageFix" result="effect1_dropShadow_318_3269"/>
<feBlend mode="normal" in="SourceGraphic" in2="effect1_dropShadow_318_3269" result="shape"/>
</filter>
<linearGradient id="paint0_linear_318_3269" x1="1535.92" y1="3.3445" x2="1535.92" y2="3068.67" gradientUnits="userSpaceOnUse">
<stop/>
<stop offset="1" stop-color="#F7931A"/>
</linearGradient>
</defs>
</svg>
