<svg width="41" height="41" viewBox="0 0 41 41" fill="none" xmlns="http://www.w3.org/2000/svg">
<g clip-path="url(#clip0_1544_1235)">
<path d="M40.0402 24.9223C37.3586 35.6799 26.4594 42.2193 15.717 39.5376C4.95904 36.856 -1.58043 25.9573 1.1013 15.2153C3.78288 4.45771 14.6663 -2.08169 25.4243 0.600017C36.1666 3.26589 42.7219 14.1646 40.0402 24.9223Z" fill="url(#paint0_linear_1544_1235)"/>
<path d="M30.1257 17.5679C30.5177 14.9023 28.495 13.4598 25.704 12.5033L26.6134 8.88129L24.4182 8.3325L23.5401 11.8604C22.96 11.7193 22.3641 11.5782 21.7683 11.4528L22.6464 7.90914L20.4512 7.36035L19.5574 10.9667C19.0714 10.8569 18.601 10.7472 18.1462 10.6374V10.6217L15.1043 9.86912L14.5242 12.2211C14.5242 12.2211 16.1549 12.5974 16.1235 12.6131C17.0173 12.8326 17.1741 13.4284 17.1427 13.8988L16.1079 18.0226C16.1706 18.0383 16.249 18.054 16.3431 18.101C16.2647 18.0853 16.1863 18.0696 16.1079 18.0383L14.6653 23.8084C14.5555 24.075 14.2733 24.4827 13.6618 24.3259C13.6775 24.3572 12.0624 23.9339 12.0624 23.9339L10.9648 26.4583L13.8343 27.1796C14.3674 27.3207 14.8848 27.4461 15.4023 27.5873L14.4928 31.2406L16.688 31.7894L17.5975 28.1674C18.1933 28.3242 18.7891 28.481 19.3536 28.6221L18.4598 32.2285L20.655 32.7773L21.5645 29.1239C25.3277 29.8295 28.15 29.5472 29.326 26.1447C30.2825 23.4164 29.279 21.8328 27.3033 20.7979C28.7616 20.4686 29.8435 19.5122 30.1257 17.5679ZM25.0925 24.6238C24.4182 27.3521 19.8083 25.8782 18.3187 25.5019L19.5261 20.6568C21.0157 21.0331 25.8137 21.7701 25.0925 24.6238ZM25.7824 17.5208C25.1552 20.0139 21.3293 18.7439 20.0906 18.4303L21.1882 14.0399C22.4269 14.3535 26.4252 14.9337 25.7824 17.5208Z" fill="white"/>
</g>
<defs>
<linearGradient id="paint0_linear_1544_1235" x1="2006.45" y1="-0.964646" x2="2006.45" y2="4013.62" gradientUnits="userSpaceOnUse">
<stop stop-color="#F9AA4B"/>
<stop offset="1" stop-color="#F7931A"/>
</linearGradient>
<clipPath id="clip0_1544_1235">
<rect width="40.1406" height="40.1402" fill="white" transform="translate(0.5 -0.00128174)"/>
</clipPath>
</defs>
</svg>
