<svg width="30" height="25" viewBox="0 0 30 25" fill="none" xmlns="http://www.w3.org/2000/svg">
<path d="M25.3962 2.01693C23.4512 1.06708 21.3986 0.389653 19.2898 0.00160965C19.2706 -0.00211335 19.2509 0.000659646 19.2333 0.00953665C19.2157 0.0184146 19.2011 0.0329477 19.1917 0.0510867C18.928 0.550009 18.6358 1.20119 18.4314 1.71289C16.1254 1.34548 13.8314 1.34548 11.5729 1.71289C11.3683 1.1897 11.0656 0.550009 10.8007 0.0510867C10.7909 0.0332407 10.7763 0.0189596 10.7588 0.0101266C10.7412 0.00129464 10.7216 -0.00167535 10.7024 0.00160965C8.59346 0.388774 6.54078 1.06623 4.59607 2.01693C4.57952 2.0246 4.56551 2.03739 4.55587 2.05364C0.666658 8.23606 -0.398642 14.2665 0.123959 20.2223C0.127144 20.2517 0.141171 20.2786 0.162959 20.297C2.72887 22.3021 5.21452 23.5194 7.65398 24.3262C7.67296 24.3321 7.6932 24.3318 7.71201 24.3253C7.73082 24.3187 7.74731 24.3062 7.75928 24.2895C8.33633 23.4509 8.85068 22.5669 9.29184 21.6372C9.29791 21.6244 9.30138 21.6105 9.30201 21.5962C9.30265 21.5819 9.30043 21.5677 9.29551 21.5544C9.29059 21.5411 9.28308 21.5291 9.27348 21.5191C9.26387 21.5091 9.25239 21.5015 9.23978 21.4966C8.42378 21.1671 7.64693 20.7657 6.89963 20.3097C6.88602 20.3012 6.87459 20.2892 6.86635 20.2749C6.85811 20.2606 6.85331 20.2443 6.85237 20.2275C6.85144 20.2107 6.8544 20.194 6.86099 20.1787C6.86759 20.1634 6.87761 20.1501 6.89018 20.1399C7.04784 20.0145 7.20278 19.8853 7.35488 19.7524C7.36821 19.7407 7.38434 19.7332 7.40145 19.7307C7.41857 19.7283 7.436 19.7309 7.45178 19.7384C12.3616 22.1235 17.6768 22.1235 22.5286 19.7384C22.5445 19.7304 22.5621 19.7274 22.5795 19.7297C22.5968 19.7319 22.6133 19.7394 22.6269 19.7511C22.7791 19.8848 22.9345 20.0144 23.0928 20.1399C23.1054 20.15 23.1155 20.1632 23.1222 20.1784C23.1289 20.1937 23.1319 20.2104 23.1311 20.2272C23.1303 20.2439 23.1256 20.2602 23.1175 20.2746C23.1094 20.289 23.098 20.3011 23.0845 20.3097C22.3368 20.7743 21.5536 21.1709 20.7432 21.4953C20.7306 21.5004 20.7192 21.5083 20.7097 21.5185C20.7002 21.5286 20.6928 21.5408 20.688 21.5542C20.6832 21.5675 20.6811 21.5819 20.6819 21.5961C20.6826 21.6104 20.6862 21.6244 20.6923 21.6372C21.1411 22.5595 21.6528 23.4456 22.2235 24.2882C22.2352 24.3054 22.2516 24.3182 22.2705 24.325C22.2893 24.3319 22.3097 24.3322 22.3288 24.3262C24.7801 23.5194 27.2658 22.3021 29.8318 20.297C29.8428 20.2883 29.8519 20.2773 29.8587 20.2647C29.8654 20.252 29.8695 20.238 29.8708 20.2236C30.4963 13.3381 28.8231 7.35696 25.4352 2.05492C25.4269 2.03764 25.4131 2.02414 25.3962 2.01693ZM10.025 16.5959C8.54678 16.5959 7.32878 15.152 7.32878 13.3786C7.32878 11.6053 8.52323 10.1613 10.025 10.1613C11.5385 10.1613 12.7447 11.618 12.721 13.3786C12.721 15.152 11.5267 16.5959 10.025 16.5959ZM19.9935 16.5959C18.5152 16.5959 17.2973 15.152 17.2973 13.3786C17.2973 11.6053 18.4916 10.1613 19.9935 10.1613C21.507 10.1613 22.7131 11.618 22.6896 13.3786C22.6896 15.152 21.507 16.5959 19.9935 16.5959Z" fill="black"/>
</svg>
