<svg width="31" height="31" viewBox="0 0 31 31" fill="none" xmlns="http://www.w3.org/2000/svg">
<g clip-path="url(#clip0_109_35)">
<path d="M15.2249 0.46875C7.05256 0.46875 0.419922 7.10139 0.419922 15.2738C0.419922 23.4461 7.05256 30.0788 15.2249 30.0788C23.3973 30.0788 30.0299 23.4461 30.0299 15.2738C30.0299 7.10139 23.3973 0.46875 15.2249 0.46875ZM22.0944 10.5362C21.8724 12.8753 20.91 18.5605 20.4215 21.1809C20.2142 22.2913 19.7997 22.6614 19.4147 22.7059C18.556 22.7799 17.9046 22.1433 17.0755 21.5955C15.7727 20.7368 15.0325 20.2038 13.774 19.3747C12.3083 18.4124 13.2559 17.8794 14.0997 17.0207C14.3218 16.7987 18.1119 13.3491 18.1859 13.0382C18.1962 12.9911 18.1948 12.9422 18.1819 12.8958C18.169 12.8493 18.145 12.8067 18.1119 12.7717C18.0231 12.6977 17.9046 12.7273 17.801 12.7421C17.6677 12.7717 15.595 14.1486 11.5533 16.8727C10.9611 17.2724 10.4281 17.4797 9.95434 17.4649C9.42136 17.4501 8.41462 17.1688 7.65957 16.9171C6.72685 16.621 6.00141 16.4582 6.06063 15.94C6.09024 15.6735 6.46036 15.407 7.1562 15.1257C11.4793 13.2455 14.3514 12.0018 15.7875 11.4096C19.9033 9.69227 20.7472 9.39616 21.3098 9.39616C21.4282 9.39616 21.7095 9.42578 21.8872 9.57382C22.0352 9.69227 22.0796 9.85512 22.0944 9.97356C22.0796 10.0624 22.1092 10.3289 22.0944 10.5362Z" fill="black"/>
</g>
<defs>
<clipPath id="clip0_109_35">
<rect width="31" height="31" fill="white"/>
</clipPath>
</defs>
</svg>
