<svg width="30" height="27" viewBox="0 0 30 27" fill="none" xmlns="http://www.w3.org/2000/svg">
<path d="M2.06205 11.3889C10.1166 7.65577 15.4863 5.19461 18.1712 4.00537C25.8459 0.609875 27.4387 0.0201531 28.479 0.000174086C28.7078 -0.00372991 29.2171 0.0564361 29.5495 0.342341C29.8257 0.583466 29.9034 0.909563 29.9423 1.13851C29.9768 1.36723 30.0243 1.88852 29.9854 2.29545C29.5711 6.94342 27.7711 18.2226 26.856 23.4286C26.4718 25.6313 25.7078 26.3698 24.9697 26.442C23.3639 26.599 22.1467 25.3139 20.5928 24.2305C18.1626 22.5343 16.7899 21.4789 14.4288 19.8241C11.7008 17.9116 13.4705 16.8603 15.0245 15.1426C15.4302 14.693 22.5006 7.85188 22.6345 7.23139C22.6517 7.15377 22.669 6.86442 22.505 6.71194C22.3453 6.55899 22.1078 6.61135 21.9352 6.65269C21.6891 6.71148 17.8086 9.44331 10.2806 14.8478C9.17995 15.6533 8.18284 16.046 7.28501 16.0254C6.30084 16.0029 4.40159 15.432 2.99009 14.9442C1.26349 14.3458 -0.11347 14.0293 0.00739165 13.0129C0.0678227 12.4838 0.754148 11.9423 2.06205 11.3889Z" fill="black"/>
</svg>
