<svg width="16" height="16" viewBox="0 0 16 16" fill="none" xmlns="http://www.w3.org/2000/svg">
<g clip-path="url(#clip0_106_45)">
<path fill-rule="evenodd" clip-rule="evenodd" d="M8 16C3.5815 16 0 12.4185 0 8C0 3.5815 3.5815 0 8 0C12.4185 0 16 3.5815 16 8C16 12.4185 12.4185 16 8 16ZM11.25 9.577C11.25 8.3155 10.462 7.603 8.6185 7.159V4.939C9.1885 5.056 9.734 5.3015 10.2675 5.687L10.947 4.589C10.2776 4.09897 9.49151 3.79282 8.667 3.701V3H7.612V3.6775C6.096 3.7945 5.0655 4.659 5.0655 5.9205C5.0655 7.2405 5.89 7.883 7.6605 8.327V10.617C6.872 10.5 6.2175 10.1495 5.526 9.612L4.75 10.675C5.5807 11.3143 6.57037 11.7144 7.612 11.832V13H8.667V11.8435C10.207 11.715 11.25 10.862 11.25 9.577ZM7.66 6.9135C6.7265 6.645 6.4965 6.3295 6.4965 5.8385C6.4965 5.325 6.8965 4.916 7.6605 4.8575L7.66 6.9135ZM9.819 9.6585C9.819 10.2195 9.3825 10.605 8.6185 10.6635V8.549C9.5645 8.818 9.819 9.133 9.819 9.659V9.6585Z" fill="black"/>
</g>
<defs>
<clipPath id="clip0_106_45">
<rect width="16" height="16" fill="white"/>
</clipPath>
</defs>
</svg>
