<svg width="31" height="27" viewBox="0 0 31 27" fill="none" xmlns="http://www.w3.org/2000/svg">
<path d="M27.2832 7.0891C27.3015 7.37054 27.3015 7.65197 27.3015 7.93606C27.3015 16.5896 21.1102 26.5698 9.78899 26.5698V26.5645C6.44452 26.5696 3.16933 25.5504 0.354492 23.6287C0.841048 23.6907 1.32938 23.7222 1.81949 23.7232C4.5915 23.7256 7.28378 22.7363 9.46366 20.9143C8.17932 20.8884 6.93468 20.4362 5.90372 19.6208C4.87276 18.8054 4.10701 17.6676 3.71349 16.3665C4.63561 16.5558 5.58627 16.5172 6.49216 16.2537C3.62082 15.6364 1.55499 12.9521 1.55499 9.83446V9.75147C2.41097 10.2588 3.36896 10.5399 4.34833 10.5711C1.64399 8.6479 0.810326 4.81972 2.44333 1.82662C3.98844 3.84997 5.91636 5.5048 8.10181 6.68357C10.2873 7.86234 12.6813 8.53868 15.1285 8.66864C14.8845 7.55114 14.9205 6.38505 15.233 5.28701C15.5455 4.18897 16.1234 3.19747 16.909 2.41166C19.388 -0.0678777 23.2868 0.0592723 25.6172 2.69557C26.9955 2.40604 28.3173 1.86838 29.5257 1.10574C29.0662 2.6221 28.1047 3.90923 26.82 4.72768C28.0401 4.57459 29.2316 4.22708 30.3545 3.69682C29.5286 5.01307 28.4885 6.16172 27.2832 7.0891Z" fill="black"/>
</svg>
