<svg width="51" height="51" viewBox="0 0 51 51" fill="none" xmlns="http://www.w3.org/2000/svg">
<g clip-path="url(#clip0_122_14)">
<path d="M45.8008 8.50003C45.6077 8.48013 45.4131 8.48013 45.22 8.50003H5.55332C5.29909 8.50395 5.04655 8.54207 4.80249 8.61336L25.2733 28.9992L45.8008 8.50003Z" fill="black"/>
<path d="M47.8975 10.4692L27.2708 31.0108C26.7399 31.5386 26.0218 31.8348 25.2733 31.8348C24.5248 31.8348 23.8067 31.5386 23.2758 31.0108L2.8333 10.625C2.77045 10.856 2.73713 11.094 2.73413 11.3333V39.6667C2.73413 40.4181 3.03264 41.1388 3.56399 41.6701C4.09535 42.2015 4.81602 42.5 5.56746 42.5H45.2341C45.9856 42.5 46.7062 42.2015 47.2376 41.6701C47.769 41.1388 48.0675 40.4181 48.0675 39.6667V11.3333C48.0562 11.0382 47.9988 10.7466 47.8975 10.4692ZM7.5083 39.6667H5.53913V37.6408L15.8383 27.4267L17.8358 29.4242L7.5083 39.6667ZM45.2058 39.6667H43.2225L32.895 29.4242L34.8925 27.4267L45.1916 37.6408L45.2058 39.6667Z" fill="black"/>
</g>
<defs>
<clipPath id="clip0_122_14">
<rect width="51" height="51" fill="white"/>
</clipPath>
</defs>
</svg>
