<svg width="30" height="30" viewBox="0 0 30 30" fill="none" xmlns="http://www.w3.org/2000/svg">
<path fill-rule="evenodd" clip-rule="evenodd" d="M10.6194 0.58513C7.75784 1.4187 5.21394 3.09539 3.31959 5.39645C1.42524 7.69752 0.268401 10.5162 0 13.4846H6.768C7.16252 8.9674 8.4722 4.57782 10.6173 0.58301L10.6194 0.58513ZM6.768 16.1283H0C0.267843 19.0968 1.42419 21.9157 3.31816 24.2171C5.21214 26.5186 7.75581 28.1957 10.6173 29.0298C8.4722 25.035 7.16252 20.6453 6.768 16.1283ZM14.0097 29.5944C11.4455 25.5276 9.87334 20.9146 9.42021 16.1283H20.0692C19.6161 20.9146 18.0439 25.5276 15.4797 29.5944C14.99 29.6188 14.4994 29.6188 14.0097 29.5944ZM18.8742 29.0277C21.7354 28.1938 24.2789 26.5169 26.1728 24.2159C28.0668 21.9148 29.2233 19.0964 29.4915 16.1283H22.7235C22.329 20.6453 21.0193 25.035 18.8742 29.0298V29.0277ZM22.7235 13.4846H29.4915C29.2237 10.516 28.0674 7.69713 26.1734 5.39569C24.2794 3.09424 21.7357 1.41708 18.8742 0.58301C21.0193 4.57782 22.329 8.9674 22.7235 13.4846ZM14.0097 0.0183068C14.5001 -0.00610225 14.9914 -0.00610225 15.4818 0.0183068C18.0453 4.08542 19.6167 8.69825 20.0692 13.4846H9.42233C9.88128 8.66866 11.4569 4.05161 14.0097 0.0183068Z" fill="black"/>
</svg>
