<svg width="30" height="31" viewBox="0 0 30 31" fill="none" xmlns="http://www.w3.org/2000/svg">
<g clip-path="url(#clip0_431_285)">
<path fill-rule="evenodd" clip-rule="evenodd" d="M15 30.1606C6.71531 30.1606 0 23.4453 0 15.1606C0 6.87596 6.71531 0.160645 15 0.160645C23.2847 0.160645 30 6.87596 30 15.1606C30 23.4453 23.2847 30.1606 15 30.1606ZM21.0938 18.1175C21.0938 15.7522 19.6162 14.4163 16.1597 13.5838V9.42127C17.2284 9.64065 18.2512 10.101 19.2516 10.8238L20.5256 8.76502C19.2705 7.84622 17.7966 7.27218 16.2506 7.10002V5.78564H14.2725V7.05596C11.43 7.27533 9.49781 8.89627 9.49781 11.2616C9.49781 13.7366 11.0437 14.9413 14.3634 15.7738V20.0675C12.885 19.8481 11.6578 19.191 10.3612 18.1831L8.90625 20.1763C10.4638 21.375 12.3194 22.1252 14.2725 22.3456V24.5356H16.2506V22.3672C19.1381 22.1263 21.0938 20.5269 21.0938 18.1175ZM14.3625 13.1235C12.6122 12.62 12.1809 12.0285 12.1809 11.1078C12.1809 10.145 12.9309 9.37814 14.3634 9.26846L14.3625 13.1235ZM18.4106 18.2703C18.4106 19.3222 17.5922 20.045 16.1597 20.1547V16.19C17.9334 16.6944 18.4106 17.285 18.4106 18.2713V18.2703Z" fill="#EAECEF"/>
</g>
<defs>
<clipPath id="clip0_431_285">
<rect width="30" height="30" fill="white" transform="translate(0 0.160645)"/>
</clipPath>
</defs>
</svg>
