<svg width="24" height="28" viewBox="0 0 24 28" fill="none" xmlns="http://www.w3.org/2000/svg">
<path d="M11.0368 0.392877C11.3025 0.135104 11.6628 -0.00970459 12.0384 -0.00970459C12.4141 -0.00970459 12.7743 0.135104 13.04 0.392877L17.29 4.51788C17.548 4.77721 17.6908 5.12453 17.6876 5.48505C17.6844 5.84558 17.5354 6.19044 17.2727 6.44538C17.0101 6.70031 16.6548 6.84492 16.2833 6.84805C15.9119 6.85119 15.554 6.71259 15.2868 6.46213L13.4551 4.68425V17.865C13.4551 18.2297 13.3058 18.5794 13.0401 18.8373C12.7745 19.0951 12.4141 19.24 12.0384 19.24C11.6627 19.24 11.3024 19.0951 11.0367 18.8373C10.771 18.5794 10.6217 18.2297 10.6217 17.865V4.68425L8.78999 6.46213C8.52281 6.71259 8.16495 6.85119 7.79351 6.84805C7.42206 6.84492 7.06675 6.70031 6.80408 6.44538C6.54142 6.19044 6.39243 5.84558 6.38921 5.48505C6.38598 5.12453 6.52877 4.77721 6.78683 4.51788L11.0368 0.392877ZM0.705078 12.365C0.705078 11.6357 1.00359 10.9362 1.53494 10.4205C2.0663 9.90474 2.78696 9.615 3.53841 9.615H6.37174C6.74747 9.615 7.1078 9.75987 7.37348 10.0177C7.63915 10.2756 7.78841 10.6253 7.78841 10.99C7.78841 11.3547 7.63915 11.7044 7.37348 11.9623C7.1078 12.2201 6.74747 12.365 6.37174 12.365H3.53841V24.74H20.5384V12.365H17.7051C17.3294 12.365 16.969 12.2201 16.7033 11.9623C16.4377 11.7044 16.2884 11.3547 16.2884 10.99C16.2884 10.6253 16.4377 10.2756 16.7033 10.0177C16.969 9.75987 17.3294 9.615 17.7051 9.615H20.5384C21.2899 9.615 22.0105 9.90474 22.5419 10.4205C23.0732 10.9362 23.3717 11.6357 23.3717 12.365V24.74C23.3717 25.4694 23.0732 26.1688 22.5419 26.6845C22.0105 27.2003 21.2899 27.49 20.5384 27.49H3.53841C2.78696 27.49 2.0663 27.2003 1.53494 26.6845C1.00359 26.1688 0.705078 25.4694 0.705078 24.74V12.365Z" fill="white"/>
</svg>
