<svg width="21" height="22" viewBox="0 0 21 22" fill="none" xmlns="http://www.w3.org/2000/svg">
<path d="M18.9108 16.5818C18.9108 16.7559 18.845 16.9228 18.7277 17.0459C18.6105 17.1689 18.4516 17.2381 18.2858 17.2381H14.0358C13.8966 17.7831 13.59 18.2647 13.1637 18.6081C12.7373 18.9516 12.2149 19.1378 11.6775 19.1378C11.1401 19.1378 10.6177 18.9516 10.1913 18.6081C9.7649 18.2647 9.45834 17.7831 9.31914 17.2381H2.86914C2.70338 17.2381 2.54441 17.1689 2.4272 17.0459C2.30999 16.9228 2.24414 16.7559 2.24414 16.5818C2.24414 16.4078 2.30999 16.2409 2.4272 16.1178C2.54441 15.9947 2.70338 15.9256 2.86914 15.9256H9.31914C9.45834 15.3806 9.7649 14.899 10.1913 14.5555C10.6177 14.2121 11.1401 14.0259 11.6775 14.0259C12.2149 14.0259 12.7373 14.2121 13.1637 14.5555C13.59 14.899 13.8966 15.3806 14.0358 15.9256H18.2858C18.4516 15.9256 18.6105 15.9947 18.7277 16.1178C18.845 16.2409 18.9108 16.4078 18.9108 16.5818ZM18.9108 5.02308C18.9108 5.19713 18.845 5.36405 18.7277 5.48712C18.6105 5.61019 18.4516 5.67933 18.2858 5.67933H16.2441C16.1049 6.22435 15.7984 6.70592 15.372 7.04938C14.9456 7.39284 14.4232 7.57901 13.8858 7.57901C13.3484 7.57901 12.826 7.39284 12.3996 7.04938C11.9732 6.70592 11.6667 6.22435 11.5275 5.67933H2.86914C2.78706 5.67933 2.70579 5.66236 2.62996 5.62938C2.55413 5.5964 2.48524 5.54806 2.4272 5.48712C2.36916 5.42619 2.32313 5.35384 2.29172 5.27422C2.26031 5.1946 2.24414 5.10926 2.24414 5.02308C2.24414 4.9369 2.26031 4.85157 2.29172 4.77195C2.32313 4.69233 2.36916 4.61998 2.4272 4.55905C2.48524 4.49811 2.55413 4.44977 2.62996 4.41679C2.70579 4.38381 2.78706 4.36683 2.86914 4.36683H11.5275C11.6667 3.82182 11.9732 3.34025 12.3996 2.99679C12.826 2.65333 13.3484 2.46716 13.8858 2.46716C14.4232 2.46716 14.9456 2.65333 15.372 2.99679C15.7984 3.34025 16.1049 3.82182 16.2441 4.36683H18.2858C18.3682 4.36566 18.45 4.38183 18.5263 4.41439C18.6026 4.44695 18.672 4.49525 18.7302 4.55642C18.7885 4.6176 18.8345 4.69041 18.8655 4.77056C18.8965 4.85071 18.9119 4.93658 18.9108 5.02308ZM18.9108 10.7981C18.9119 10.8846 18.8965 10.9705 18.8655 11.0506C18.8345 11.1308 18.7885 11.2036 18.7302 11.2647C18.672 11.3259 18.6026 11.3742 18.5263 11.4068C18.45 11.4393 18.3682 11.4555 18.2858 11.4543H8.53581C8.39661 11.9994 8.09005 12.4809 7.66366 12.8244C7.23727 13.1678 6.71488 13.354 6.17747 13.354C5.64007 13.354 5.11768 13.1678 4.69129 12.8244C4.2649 12.4809 3.95834 11.9994 3.81914 11.4543H2.86914C2.70338 11.4543 2.54441 11.3852 2.4272 11.2621C2.30999 11.1391 2.24414 10.9721 2.24414 10.7981C2.24414 10.624 2.30999 10.4571 2.4272 10.334C2.54441 10.211 2.70338 10.1418 2.86914 10.1418H3.81914C3.95834 9.59682 4.2649 9.11525 4.69129 8.77179C5.11768 8.42833 5.64007 8.24216 6.17747 8.24216C6.71488 8.24216 7.23727 8.42833 7.66366 8.77179C8.09005 9.11525 8.39661 9.59682 8.53581 10.1418H18.2858C18.4516 10.1418 18.6105 10.211 18.7277 10.334C18.845 10.4571 18.9108 10.624 18.9108 10.7981Z" fill="white"/>
</svg>
