<svg width="21" height="19" viewBox="0 0 21 19" fill="none" xmlns="http://www.w3.org/2000/svg">
<path d="M3.42383 18.7682V16.7682H17.4238V18.7682H3.42383ZM3.42383 15.2682L2.14883 7.24319C2.1155 7.24319 2.07783 7.24752 2.03583 7.25619C1.99383 7.26486 1.9565 7.26886 1.92383 7.26819C1.50716 7.26819 1.15316 7.12219 0.86183 6.83019C0.570497 6.53819 0.424497 6.18419 0.42383 5.76819C0.423164 5.35219 0.569164 4.99819 0.86183 4.70619C1.1545 4.41419 1.5085 4.26819 1.92383 4.26819C2.33916 4.26819 2.6935 4.41419 2.98683 4.70619C3.28016 4.99819 3.42583 5.35219 3.42383 5.76819C3.42383 5.88486 3.41116 5.99319 3.38583 6.09319C3.3605 6.19319 3.3315 6.28486 3.29883 6.36819L6.42383 7.76819L9.54883 3.49319C9.3655 3.35986 9.2155 3.18486 9.09883 2.96819C8.98216 2.75152 8.92383 2.51819 8.92383 2.26819C8.92383 1.85152 9.06983 1.49719 9.36183 1.20519C9.65383 0.913191 10.0078 0.767524 10.4238 0.768191C10.8398 0.768857 11.1942 0.914857 11.4868 1.20619C11.7795 1.49752 11.9252 1.85152 11.9238 2.26819C11.9238 2.51819 11.8655 2.75152 11.7488 2.96819C11.6322 3.18486 11.4822 3.35986 11.2988 3.49319L14.4238 7.76819L17.5488 6.36819C17.5155 6.28486 17.4862 6.19319 17.4608 6.09319C17.4355 5.99319 17.4232 5.88486 17.4238 5.76819C17.4238 5.35152 17.5698 4.99719 17.8618 4.70519C18.1538 4.41319 18.5078 4.26752 18.9238 4.26819C19.3398 4.26886 19.6942 4.41486 19.9868 4.70619C20.2795 4.99752 20.4252 5.35152 20.4238 5.76819C20.4225 6.18486 20.2768 6.53919 19.9868 6.83119C19.6968 7.12319 19.3425 7.26886 18.9238 7.26819C18.8905 7.26819 18.8532 7.26419 18.8118 7.25619C18.7705 7.24819 18.7328 7.24386 18.6988 7.24319L17.4238 15.2682H3.42383Z" fill="#FFB92D"/>
</svg>
