<svg width="33" height="32" viewBox="0 0 33 32" fill="none" xmlns="http://www.w3.org/2000/svg">
<path d="M16.6732 31.9271C14.5093 31.9271 12.4641 31.5112 10.5378 30.6795C8.61137 29.8477 6.92934 28.713 5.49168 27.2753C4.05401 25.8376 2.91929 24.1556 2.08751 22.2292C1.25573 20.3028 0.839844 18.2577 0.839844 16.0938C0.839844 13.9035 1.25573 11.852 2.08751 9.93937C2.91929 8.0267 4.05401 6.35101 5.49168 4.91229C6.92934 3.47356 8.61137 2.33884 10.5378 1.50812C12.4641 0.677397 14.5093 0.261508 16.6732 0.260452C18.8635 0.260452 20.9155 0.676341 22.8292 1.50812C24.7429 2.3399 26.4181 3.47462 27.8547 4.91229C29.2913 6.34995 30.426 8.02565 31.2588 9.93937C32.0917 11.8531 32.5076 13.9046 32.5065 16.0938C32.5065 18.2577 32.0906 20.3028 31.2588 22.2292C30.4271 24.1556 29.2923 25.8381 27.8547 27.2769C26.417 28.7156 24.7413 29.8503 22.8276 30.681C20.9139 31.5118 18.8624 31.9271 16.6732 31.9271ZM16.6732 28.6813C17.3593 27.7313 17.953 26.7417 18.4544 25.7125C18.9558 24.6834 19.3648 23.5882 19.6815 22.4271H13.6648C13.9815 23.5882 14.3905 24.6834 14.8919 25.7125C15.3933 26.7417 15.9871 27.7313 16.6732 28.6813ZM12.5565 28.0479C12.0815 27.1771 11.6661 26.273 11.3104 25.3357C10.9547 24.3984 10.6576 23.4288 10.419 22.4271H5.74818C6.51345 23.7466 7.47032 24.8945 8.61876 25.8709C9.76721 26.8473 11.0798 27.573 12.5565 28.0479ZM20.7898 28.0479C22.2676 27.573 23.5807 26.8473 24.7292 25.8709C25.8776 24.8945 26.834 23.7466 27.5982 22.4271H22.9273C22.6898 23.4299 22.3932 24.4 22.0375 25.3373C21.6818 26.2746 21.2659 27.1782 20.7898 28.0479ZM4.40234 19.2605H9.78568C9.70651 18.7327 9.6474 18.2118 9.60834 17.6977C9.56929 17.1836 9.54923 16.649 9.54818 16.0938C9.54712 15.5386 9.56718 15.0045 9.60834 14.4915C9.64951 13.9785 9.70862 13.457 9.78568 12.9271H4.40234C4.2704 13.4549 4.17171 13.9763 4.10626 14.4915C4.04082 15.0066 4.00757 15.5407 4.00651 16.0938C4.00546 16.6469 4.03871 17.1815 4.10626 17.6977C4.17382 18.2139 4.27251 18.7348 4.40234 19.2605ZM12.9523 19.2605H20.394C20.4732 18.7327 20.5328 18.2118 20.5729 17.6977C20.613 17.1836 20.6326 16.649 20.6315 16.0938C20.6305 15.5386 20.6104 15.0045 20.5713 14.4915C20.5323 13.9785 20.4732 13.457 20.394 12.9271H12.9523C12.8732 13.4549 12.8141 13.9763 12.775 14.4915C12.736 15.0066 12.7159 15.5407 12.7148 16.0938C12.7138 16.6469 12.7338 17.1815 12.775 17.6977C12.8162 18.2139 12.8753 18.7348 12.9523 19.2605ZM23.5607 19.2605H28.944C29.076 18.7327 29.1752 18.2118 29.2417 17.6977C29.3082 17.1836 29.3409 16.649 29.3398 16.0938C29.3388 15.5386 29.3061 15.0045 29.2417 14.4915C29.1773 13.9785 29.0781 13.457 28.944 12.9271H23.5607C23.6398 13.4549 23.6995 13.9763 23.7396 14.4915C23.7797 15.0066 23.7992 15.5407 23.7982 16.0938C23.7971 16.6469 23.7771 17.1815 23.738 17.6977C23.699 18.2139 23.6398 18.7348 23.5607 19.2605ZM22.9273 9.76045H27.5982C26.8329 8.44101 25.8766 7.29309 24.7292 6.3167C23.5818 5.34031 22.2687 4.61462 20.7898 4.13962C21.2648 5.01045 21.6807 5.91454 22.0375 6.85187C22.3943 7.7892 22.6909 8.75873 22.9273 9.76045ZM13.6648 9.76045H19.6815C19.3648 8.59934 18.9558 7.5042 18.4544 6.47504C17.953 5.44587 17.3593 4.45629 16.6732 3.50629C15.9871 4.45629 15.3933 5.44587 14.8919 6.47504C14.3905 7.5042 13.9815 8.59934 13.6648 9.76045ZM5.74818 9.76045H10.419C10.6565 8.75767 10.9536 7.78762 11.3104 6.85029C11.6672 5.91295 12.0826 5.0094 12.5565 4.13962C11.0787 4.61462 9.76562 5.34031 8.61718 6.3167C7.46873 7.29309 6.5124 8.44101 5.74818 9.76045Z" fill="white"/>
</svg>
