<svg width="73" height="73" viewBox="0 0 73 73" fill="none" xmlns="http://www.w3.org/2000/svg">
<path d="M36.4994 0.44696C29.4122 0.44696 22.4842 2.54855 16.5914 6.48597C10.6987 10.4234 6.10582 16.0198 3.39368 22.5675C0.681542 29.1152 -0.0280778 36.32 1.35456 43.271C2.7372 50.222 6.14999 56.6069 11.1614 61.6183C16.1728 66.6297 22.5576 70.0425 29.5086 71.4251C36.4596 72.8077 43.6645 72.0981 50.2122 69.386C56.7599 66.6738 62.3563 62.081 66.2937 56.1882C70.2311 50.2955 72.3327 43.3675 72.3327 36.2803C72.3327 31.5746 71.4058 26.915 69.605 22.5675C67.8043 18.22 65.1648 14.2697 61.8373 10.9423C58.5099 7.61487 54.5597 4.9754 50.2122 3.17461C45.8647 1.37382 41.2051 0.44696 36.4994 0.44696ZM29.3327 52.4053V20.1553L50.8327 36.2803L29.3327 52.4053Z" fill="white"/>
</svg>
