<svg width="31" height="31" viewBox="0 0 31 31" fill="none" xmlns="http://www.w3.org/2000/svg">
<path d="M23.3369 12.5469H18.3369V7.54688C18.3369 6.88383 18.0735 6.24795 17.6047 5.77911C17.1358 5.31027 16.5 5.04688 15.8369 5.04688C15.1739 5.04688 14.538 5.31027 14.0691 5.77911C13.6003 6.24795 13.3369 6.88383 13.3369 7.54688L13.4257 12.5469H8.33691C7.67387 12.5469 7.03799 12.8103 6.56915 13.2791C6.10031 13.7479 5.83691 14.3838 5.83691 15.0469C5.83691 15.7099 6.10031 16.3458 6.56915 16.8146C7.03799 17.2835 7.67387 17.5469 8.33691 17.5469L13.4257 17.4581L13.3369 22.5469C13.3369 23.2099 13.6003 23.8458 14.0691 24.3146C14.538 24.7835 15.1739 25.0469 15.8369 25.0469C16.5 25.0469 17.1358 24.7835 17.6047 24.3146C18.0735 23.8458 18.3369 23.2099 18.3369 22.5469V17.4581L23.3369 17.5469C24 17.5469 24.6358 17.2835 25.1047 16.8146C25.5735 16.3458 25.8369 15.7099 25.8369 15.0469C25.8369 14.3838 25.5735 13.7479 25.1047 13.2791C24.6358 12.8103 24 12.5469 23.3369 12.5469Z" fill="white"/>
</svg>
