<svg width="20" height="21" viewBox="0 0 20 21" fill="none" xmlns="http://www.w3.org/2000/svg">
<path d="M18.465 19.4733L14.4839 15.2374M14.4839 15.2374C15.1649 14.5128 15.7051 13.6526 16.0737 12.7059C16.4422 11.7592 16.6319 10.7445 16.6319 9.71979C16.6319 8.69508 16.4422 7.6804 16.0737 6.73369C15.7051 5.78699 15.1649 4.92678 14.4839 4.20221C13.803 3.47763 12.9945 2.90286 12.1048 2.51072C11.215 2.11858 10.2614 1.91675 9.29837 1.91675C8.33531 1.91675 7.38169 2.11858 6.49195 2.51072C5.6022 2.90286 4.79376 3.47763 4.11278 4.20221C2.73748 5.66556 1.96484 7.65029 1.96484 9.71979C1.96484 11.7893 2.73748 13.774 4.11278 15.2374C5.48808 16.7007 7.35339 17.5228 9.29837 17.5228C11.2433 17.5228 13.1086 16.7007 14.4839 15.2374Z" stroke="#A6A6A6" stroke-width="2" stroke-linecap="round" stroke-linejoin="round"/>
</svg>
