<svg width="21" height="21" viewBox="0 0 21 21" fill="none" xmlns="http://www.w3.org/2000/svg">
<path d="M16.7048 14.9315L20.9878 19.2135L19.5728 20.6285L15.2908 16.3455C13.6976 17.6227 11.7158 18.3174 9.67383 18.3145C4.70583 18.3145 0.673828 14.2825 0.673828 9.31445C0.673828 4.34645 4.70583 0.314453 9.67383 0.314453C14.6418 0.314453 18.6738 4.34645 18.6738 9.31445C18.6767 11.3565 17.982 13.3382 16.7048 14.9315ZM14.6988 14.1895C15.9677 12.8842 16.6764 11.1348 16.6738 9.31445C16.6738 5.44745 13.5408 2.31445 9.67383 2.31445C5.80683 2.31445 2.67383 5.44745 2.67383 9.31445C2.67383 13.1815 5.80683 16.3145 9.67383 16.3145C11.4942 16.317 13.2435 15.6083 14.5488 14.3395L14.6988 14.1895Z" fill="white"/>
</svg>
