<svg width="19" height="19" viewBox="0 0 19 19" fill="none" xmlns="http://www.w3.org/2000/svg">
<path d="M4.78906 18.6165V16.6165H8.78906V13.5165C7.9724 13.3332 7.2434 12.9875 6.60206 12.4795C5.96073 11.9715 5.48973 11.3338 5.18906 10.5665C3.93906 10.4165 2.8934 9.87085 2.05206 8.92952C1.21073 7.98818 0.789729 6.88385 0.789062 5.61652V4.61652C0.789062 4.06652 0.985063 3.59585 1.37706 3.20452C1.76906 2.81318 2.23973 2.61718 2.78906 2.61652H4.78906V0.616516H14.7891V2.61652H16.7891C17.3391 2.61652 17.8101 2.81252 18.2021 3.20452C18.5941 3.59652 18.7897 4.06718 18.7891 4.61652V5.61652C18.7891 6.88318 18.3681 7.98752 17.5261 8.92952C16.6841 9.87152 15.6384 10.4172 14.3891 10.5665C14.0891 11.3332 13.6184 11.9708 12.9771 12.4795C12.3357 12.9882 11.6064 13.3338 10.7891 13.5165V16.6165H14.7891V18.6165H4.78906ZM4.78906 8.41652V4.61652H2.78906V5.61652C2.78906 6.24985 2.9724 6.82085 3.33906 7.32952C3.70573 7.83818 4.18906 8.20052 4.78906 8.41652ZM14.7891 8.41652C15.3891 8.19985 15.8724 7.83718 16.2391 7.32852C16.6057 6.81985 16.7891 6.24918 16.7891 5.61652V4.61652H14.7891V8.41652Z" fill="url(#paint0_linear_1555_998)"/>
<defs>
<linearGradient id="paint0_linear_1555_998" x1="9.78906" y1="15.8531" x2="9.78906" y2="3.3799" gradientUnits="userSpaceOnUse">
<stop stop-color="white"/>
<stop offset="1" stop-color="#FFB92D"/>
</linearGradient>
</defs>
</svg>
