<svg width="149" height="56" viewBox="0 0 149 56" fill="none" xmlns="http://www.w3.org/2000/svg">
<path d="M138.5 1H10.5C5.52944 1 1.5 5.02944 1.5 10V46C1.5 50.9706 5.52944 55 10.5 55H138.5C143.471 55 147.5 50.9706 147.5 46V10C147.5 5.02944 143.471 1 138.5 1Z" fill="#1D2127" stroke="#FFBA31" stroke-width="2"/>
<g clip-path="url(#clip0_120_12)">
<path d="M81.5383 28.7866C81.5746 32.7138 84.9623 34.0207 84.9998 34.0374C84.9711 34.1295 84.4585 35.8997 83.215 37.7282C82.1401 39.3091 81.0244 40.8841 79.2669 40.9167C77.5401 40.9487 76.9847 39.8864 75.0104 39.8864C73.0367 39.8864 72.4197 40.8841 70.785 40.9487C69.0886 41.0134 67.7968 39.2393 66.713 37.6642C64.4981 34.4425 62.8056 28.5601 65.0782 24.5895C66.2072 22.6176 68.225 21.369 70.4149 21.337C72.0807 21.305 73.653 22.4646 74.6714 22.4646C75.6891 22.4646 77.5998 21.0701 79.6085 21.2749C80.4493 21.3102 82.8099 21.6166 84.3256 23.849C84.2033 23.9252 81.509 25.5034 81.5383 28.7867M78.2929 19.1434C79.1936 18.0465 79.7997 16.5195 79.6344 15C78.3361 15.0525 76.7664 15.8705 75.8352 16.9668C75.0007 17.9377 74.2698 19.4916 74.467 20.9809C75.9141 21.0936 77.3922 20.241 78.2929 19.1434Z" fill="white"/>
</g>
<defs>
<clipPath id="clip0_120_12">
<rect width="21" height="26" fill="white" transform="translate(64 15)"/>
</clipPath>
</defs>
</svg>
