<svg width="30" height="31" viewBox="0 0 30 31" fill="none" xmlns="http://www.w3.org/2000/svg">
<g clip-path="url(#clip0_1597_3274)">
<path fill-rule="evenodd" clip-rule="evenodd" d="M10.6785 1.05388C7.81692 1.88745 5.27302 3.56414 3.37867 5.8652C1.48432 8.16627 0.327483 10.9849 0.059082 13.9533H6.82708C7.2216 9.43615 8.53128 5.04657 10.6764 1.05176L10.6785 1.05388ZM6.82708 16.597H0.059082C0.326925 19.5655 1.48327 22.3844 3.37724 24.6858C5.27122 26.9873 7.81489 28.6644 10.6764 29.4985C8.53128 25.5037 7.2216 21.1141 6.82708 16.597ZM14.0688 30.0632C11.5046 25.9963 9.93242 21.3834 9.47929 16.597H20.1283C19.6752 21.3834 18.103 25.9963 15.5388 30.0632C15.0491 30.0876 14.5585 30.0876 14.0688 30.0632ZM18.9333 29.4964C21.7945 28.6625 24.338 26.9856 26.2319 24.6846C28.1259 22.3835 29.2824 19.5651 29.5506 16.597H22.7826C22.3881 21.1141 21.0784 25.5037 18.9333 29.4985V29.4964ZM22.7826 13.9533H29.5506C29.2828 10.9847 28.1265 8.16588 26.2325 5.86444C24.3385 3.56299 21.7948 1.88583 18.9333 1.05176C21.0784 5.04657 22.3881 9.43615 22.7826 13.9533ZM14.0688 0.487057C14.5592 0.462648 15.0505 0.462648 15.5409 0.487057C18.1044 4.55417 19.6758 9.167 20.1283 13.9533H9.48141C9.94036 9.13741 11.516 4.52036 14.0688 0.487057Z" fill="white"/>
</g>
<defs>
<clipPath id="clip0_1597_3274">
<rect width="29.61" height="29.61" fill="white" transform="translate(0 0.46875)"/>
</clipPath>
</defs>
</svg>
