<svg width="29" height="29" viewBox="0 0 29 29" fill="none" xmlns="http://www.w3.org/2000/svg">
<path d="M14.8322 28.3437C12.8393 28.3437 10.9694 27.9674 9.22241 27.2148C7.47547 26.4622 5.94913 25.4325 4.64341 24.1257C3.33769 22.819 2.30799 21.2921 1.55433 19.5452C0.800661 17.7982 0.423828 15.9283 0.423828 13.9354C0.423828 10.8532 1.31049 8.07444 3.08383 5.59917C4.85716 3.12389 7.19838 1.39805 10.1075 0.421665C9.99772 2.89166 10.3761 5.26719 11.2427 7.54825C12.1083 9.8293 13.4172 11.8454 15.1694 13.5966C16.9216 15.3488 18.9377 16.6582 21.2177 17.5248C23.4977 18.3914 25.8738 18.7699 28.3459 18.6601C27.3748 21.5671 25.65 23.9078 23.1716 25.6822C20.6931 27.4566 17.9133 28.3437 14.8322 28.3437Z" fill="white"/>
</svg>
