<svg width="50" height="51" viewBox="0 0 50 51" fill="none" xmlns="http://www.w3.org/2000/svg">
<circle cx="25" cy="25.6283" r="25" fill="white"/>
<path d="M25.1583 39.8783C23.1654 39.8783 21.2955 39.502 19.5486 38.7494C17.8016 37.9968 16.2753 36.9671 14.9696 35.6603C13.6639 34.3535 12.6342 32.8267 11.8805 31.0797C11.1268 29.3328 10.75 27.4628 10.75 25.47C10.75 22.3877 11.6367 19.609 13.41 17.1337C15.1833 14.6584 17.5246 12.9326 20.4337 11.9562C20.3239 14.4262 20.7023 16.8017 21.5689 19.0828C22.4345 21.3638 23.7434 23.38 25.4956 25.1311C27.2478 26.8833 29.2639 28.1928 31.5439 29.0594C33.8239 29.926 36.2 30.3044 38.6721 30.1946C37.701 33.1016 35.9762 35.4423 33.4977 37.2167C31.0193 38.9911 28.2395 39.8783 25.1583 39.8783Z" fill="black"/>
</svg>
