<svg width="31" height="31" viewBox="0 0 31 31" fill="none" xmlns="http://www.w3.org/2000/svg">
<path d="M15.6155 0.46875C23.8006 0.46875 30.4205 7.0887 30.4205 15.2738C30.4205 23.4588 23.8006 30.0788 15.6155 30.0788C7.4305 30.0788 0.810547 23.4588 0.810547 15.2738C0.810547 7.0887 7.4305 0.46875 15.6155 0.46875ZM12.9083 23.0781C19.4648 23.0781 23.0603 17.6425 23.0603 12.9261V12.4608C23.7583 11.9532 24.3716 11.3187 24.8369 10.5996C24.2024 10.8745 23.5045 11.0649 22.7854 11.1706C23.5256 10.7265 24.0967 10.0286 24.3505 9.2037C23.6525 9.60555 22.8911 9.90165 22.0874 10.0709C21.4318 9.3729 20.5012 8.9499 19.486 8.9499C17.519 8.9499 15.9116 10.5573 15.9116 12.5243C15.9116 12.7992 15.9328 13.0742 16.0174 13.3279C13.0564 13.1799 10.4126 11.7629 8.6572 9.60555C8.3611 10.1343 8.17075 10.7477 8.17075 11.4033C8.17075 12.63 8.80525 13.7298 9.757 14.3643C9.1648 14.3643 8.6149 14.1951 8.1496 13.9202V13.9625C8.1496 15.6968 9.3763 17.135 11.0048 17.4734C10.7087 17.5579 10.3915 17.6003 10.0742 17.6003C9.8416 17.6003 9.6301 17.5791 9.39745 17.5368C9.8416 18.9538 11.174 19.9902 12.718 20.0113C11.4913 20.9631 9.94735 21.5342 8.2765 21.5342C7.9804 21.5342 7.70545 21.5341 7.4305 21.4918C8.9956 22.507 10.8779 23.0992 12.8872 23.0992" fill="#00FF45"/>
</svg>
