<svg width="31" height="25" viewBox="0 0 31 25" fill="none" xmlns="http://www.w3.org/2000/svg">
<path d="M25.7507 2.45249C23.8057 1.50264 21.7531 0.825215 19.6443 0.437172C19.6251 0.433449 19.6054 0.436222 19.5878 0.445099C19.5702 0.453977 19.5556 0.46851 19.5462 0.486649C19.2825 0.985571 18.9903 1.63675 18.7859 2.14845C16.4799 1.78104 14.1859 1.78104 11.9274 2.14845C11.7228 1.62526 11.4201 0.985571 11.1552 0.486649C11.1454 0.468803 11.1308 0.454522 11.1133 0.445689C11.0957 0.436857 11.0761 0.433887 11.0569 0.437172C8.94795 0.824336 6.89527 1.50179 4.95056 2.45249C4.93401 2.46016 4.92 2.47295 4.91036 2.4892C1.02115 8.67162 -0.0441503 14.7021 0.478451 20.6579C0.481636 20.6873 0.495663 20.7142 0.517451 20.7326C3.08336 22.7377 5.56901 23.955 8.00847 24.7618C8.02745 24.7677 8.04769 24.7674 8.0665 24.7609C8.08531 24.7543 8.1018 24.7418 8.11377 24.7251C8.69082 23.8865 9.20517 23.0025 9.64633 22.0728C9.6524 22.06 9.65587 22.0461 9.6565 22.0318C9.65714 22.0175 9.65492 22.0033 9.65 21.99C9.64508 21.9767 9.63757 21.9647 9.62797 21.9547C9.61836 21.9447 9.60688 21.9371 9.59427 21.9322C8.77827 21.6027 8.00142 21.2013 7.25412 20.7453C7.24051 20.7368 7.22908 20.7248 7.22084 20.7105C7.2126 20.6962 7.2078 20.6799 7.20686 20.6631C7.20593 20.6463 7.20889 20.6296 7.21548 20.6143C7.22208 20.599 7.2321 20.5857 7.24467 20.5755C7.40233 20.4501 7.55727 20.3209 7.70937 20.188C7.7227 20.1763 7.73883 20.1688 7.75594 20.1663C7.77306 20.1639 7.79049 20.1665 7.80627 20.174C12.7161 22.5591 18.0313 22.5591 22.8831 20.174C22.899 20.166 22.9166 20.163 22.934 20.1653C22.9513 20.1675 22.9678 20.175 22.9814 20.1867C23.1336 20.3204 23.289 20.45 23.4473 20.5755C23.4599 20.5856 23.47 20.5988 23.4767 20.614C23.4834 20.6293 23.4864 20.646 23.4856 20.6628C23.4848 20.6795 23.4801 20.6958 23.472 20.7102C23.4639 20.7246 23.4525 20.7367 23.439 20.7453C22.6913 21.2099 21.9081 21.6065 21.0977 21.9309C21.0851 21.936 21.0737 21.9439 21.0642 21.9541C21.0547 21.9642 21.0473 21.9764 21.0425 21.9898C21.0377 22.0031 21.0356 22.0175 21.0364 22.0317C21.0371 22.046 21.0407 22.06 21.0468 22.0728C21.4956 22.9951 22.0073 23.8812 22.578 24.7238C22.5897 24.741 22.6061 24.7538 22.625 24.7606C22.6438 24.7675 22.6642 24.7678 22.6833 24.7618C25.1346 23.955 27.6203 22.7377 30.1863 20.7326C30.1973 20.7239 30.2064 20.7129 30.2132 20.7003C30.2199 20.6876 30.224 20.6736 30.2253 20.6592C30.8508 13.7737 29.1776 7.79252 25.7897 2.49048C25.7814 2.4732 25.7676 2.4597 25.7507 2.45249ZM10.3795 17.0315C8.90127 17.0315 7.68327 15.5876 7.68327 13.8142C7.68327 12.0409 8.87772 10.5969 10.3795 10.5969C11.893 10.5969 13.0992 12.0536 13.0755 13.8142C13.0755 15.5876 11.8812 17.0315 10.3795 17.0315ZM20.348 17.0315C18.8697 17.0315 17.6518 15.5876 17.6518 13.8142C17.6518 12.0409 18.8461 10.5969 20.348 10.5969C21.8615 10.5969 23.0676 12.0536 23.0441 13.8142C23.0441 15.5876 21.8615 17.0315 20.348 17.0315Z" fill="white"/>
</svg>
