<svg width="31" height="27" viewBox="0 0 31 27" fill="none" xmlns="http://www.w3.org/2000/svg">
<path d="M2.41654 11.7622C10.4711 8.02911 15.8408 5.56795 18.5257 4.37871C26.2004 0.983212 27.7932 0.39349 28.8335 0.373511C29.0623 0.369607 29.5716 0.429773 29.904 0.715678C30.1802 0.956803 30.2579 1.2829 30.2968 1.51185C30.3313 1.74057 30.3788 2.26186 30.3399 2.66879C29.9256 7.31676 28.1256 18.5959 27.2105 23.8019C26.8263 26.0046 26.0623 26.7431 25.3242 26.8153C23.7184 26.9723 22.5012 25.6872 20.9473 24.6038C18.5171 22.9076 17.1444 21.8522 14.7833 20.1974C12.0553 18.2849 13.825 17.2336 15.379 15.5159C15.7847 15.0663 22.8551 8.22522 22.989 7.60473C23.0062 7.52711 23.0235 7.23776 22.8595 7.08528C22.6998 6.93233 22.4623 6.98469 22.2897 7.02603C22.0436 7.08482 18.1631 9.81665 10.6351 15.2211C9.53444 16.0266 8.53733 16.4193 7.6395 16.3987C6.65533 16.3762 4.75608 15.8053 3.34458 15.3175C1.61798 14.7191 0.241022 14.4026 0.361884 13.3862C0.422315 12.8571 1.10864 12.3156 2.41654 11.7622Z" fill="white"/>
</svg>
