<svg width="31" height="27" viewBox="0 0 31 27" fill="none" xmlns="http://www.w3.org/2000/svg">
<path d="M27.2832 7.08902C27.3015 7.37046 27.3015 7.65189 27.3015 7.93598C27.3015 16.5895 21.1102 26.5697 9.78899 26.5697V26.5644C6.44452 26.5695 3.16933 25.5503 0.354492 23.6286C0.841048 23.6906 1.32938 23.7221 1.81949 23.7231C4.5915 23.7255 7.28378 22.7362 9.46366 20.9142C8.17932 20.8883 6.93468 20.4361 5.90372 19.6207C4.87276 18.8053 4.10701 17.6675 3.71349 16.3664C4.63561 16.5557 5.58627 16.5171 6.49216 16.2536C3.62082 15.6363 1.55499 12.952 1.55499 9.83438V9.75139C2.41097 10.2587 3.36896 10.5398 4.34833 10.571C1.64399 8.64782 0.810326 4.81964 2.44333 1.82654C3.98844 3.84989 5.91636 5.50472 8.10181 6.68349C10.2873 7.86226 12.6813 8.5386 15.1285 8.66856C14.8845 7.55106 14.9205 6.38497 15.233 5.28693C15.5455 4.18889 16.1234 3.19739 16.909 2.41158C19.388 -0.0679537 23.2868 0.0591967 25.6172 2.69549C26.9955 2.40596 28.3173 1.8683 29.5257 1.10566C29.0662 2.62202 28.1047 3.90915 26.82 4.7276C28.0401 4.57451 29.2316 4.227 30.3545 3.69674C29.5286 5.01299 28.4885 6.16164 27.2832 7.08902Z" fill="white"/>
</svg>
