<svg width="31" height="31" viewBox="0 0 31 31" fill="none" xmlns="http://www.w3.org/2000/svg">
<path d="M27.815 8.74771C27.7046 8.31569 27.4931 7.91612 27.1978 7.58197C26.9026 7.24781 26.5321 6.98864 26.117 6.82583C22.0998 5.27427 15.7061 5.28833 15.3545 5.28833C15.0029 5.28833 8.60918 5.27427 4.59199 6.82583C4.17687 6.98864 3.80641 7.24781 3.51117 7.58197C3.21592 7.91612 3.00437 8.31569 2.89395 8.74771C2.59043 9.91724 2.22949 12.0547 2.22949 15.6008C2.22949 19.1469 2.59043 21.2844 2.89395 22.454C3.0042 22.8862 3.21568 23.286 3.51094 23.6204C3.80619 23.9547 4.17674 24.2141 4.59199 24.377C8.44043 25.8618 14.4639 25.9133 15.2771 25.9133H15.4318C16.2451 25.9133 22.2721 25.8618 26.117 24.377C26.5322 24.2141 26.9028 23.9547 27.198 23.6204C27.4933 23.286 27.7048 22.8862 27.815 22.454C28.1186 21.2821 28.4795 19.1469 28.4795 15.6008C28.4795 12.0547 28.1186 9.91724 27.815 8.74771ZM19.3646 15.9911L13.7396 19.7411C13.669 19.7882 13.587 19.8152 13.5022 19.8193C13.4174 19.8234 13.3331 19.8045 13.2582 19.7644C13.1834 19.7243 13.1209 19.6647 13.0773 19.5919C13.0337 19.519 13.0107 19.4357 13.0107 19.3508V11.8508C13.0107 11.766 13.0337 11.6826 13.0773 11.6098C13.1209 11.537 13.1834 11.4773 13.2582 11.4373C13.3331 11.3972 13.4174 11.3782 13.5022 11.3823C13.587 11.3864 13.669 11.4135 13.7396 11.4606L19.3646 15.2106C19.4289 15.2534 19.4817 15.3114 19.5181 15.3795C19.5546 15.4476 19.5737 15.5236 19.5737 15.6008C19.5737 15.6781 19.5546 15.7541 19.5181 15.8222C19.4817 15.8903 19.4289 15.9483 19.3646 15.9911Z" fill="white"/>
</svg>
